<svg width="15" height="15" viewBox="0 0 15 15" fill="none" xmlns="http://www.w3.org/2000/svg">
<path fill-rule="evenodd" clip-rule="evenodd" d="M14.2071 1.70711C14.5976 1.31658 14.5976 0.683417 14.2071 0.292893C13.8166 -0.0976311 13.1834 -0.0976311 12.7929 0.292893L0.292893 12.7929C-0.0976311 13.1834 -0.0976311 13.8166 0.292893 14.2071C0.683417 14.5976 1.31658 14.5976 1.70711 14.2071L14.2071 1.70711ZM14.2071 5.29289C14.5976 5.68342 14.5976 6.31658 14.2071 6.70711L6.70711 14.2071C6.31658 14.5976 5.68342 14.5976 5.29289 14.2071C4.90237 13.8166 4.90237 13.1834 5.29289 12.7929L12.7929 5.29289C13.1834 4.90237 13.8166 4.90237 14.2071 5.29289ZM14.2071 10.2929C14.5976 10.6834 14.5976 11.3166 14.2071 11.7071L11.7071 14.2071C11.3166 14.5976 10.6834 14.5976 10.2929 14.2071C9.90237 13.8166 9.90237 13.1834 10.2929 12.7929L12.7929 10.2929C13.1834 9.90237 13.8166 9.90237 14.2071 10.2929Z" fill="#B4B4B4"/>
</svg>
